# Blender v2.79 (sub 0) OBJ File: 'LowPoly MasterFile.blend'
# www.blender.org
mtllib Anvil.mtl
o Anvil
v -0.191638 -0.001815 0.115397
v -0.099683 0.081135 0.061195
v -0.191638 -0.001815 -0.115397
v -0.099683 0.081135 -0.061195
v 0.191638 -0.001815 0.115397
v 0.099683 0.081135 0.061195
v 0.191638 -0.001815 -0.115397
v 0.099683 0.081135 -0.061195
v -0.177040 0.062663 0.106607
v -0.177040 0.062663 -0.106607
v 0.177040 0.062663 -0.106607
v 0.177040 0.062663 0.106607
v -0.082559 0.127313 0.045740
v -0.082559 0.127313 -0.045740
v 0.082559 0.127313 -0.045740
v 0.082559 0.127313 0.045740
v -0.170229 0.183310 0.086043
v -0.170229 0.183310 -0.086043
v 0.201570 0.142706 -0.086043
v 0.201570 0.142706 0.086043
v -0.235163 0.302791 0.118864
v -0.235163 0.302791 -0.118864
v 0.235163 0.302791 -0.118864
v 0.235163 0.302791 0.118864
v -0.332227 0.224076 0.042308
v -0.332227 0.224076 -0.042308
v -0.364156 0.302791 0.058447
v -0.364156 0.302791 -0.058447
v 0.197480 0.183356 -0.041284
v 0.197480 0.183356 0.041284
v 0.219356 0.294838 -0.077408
v 0.219356 0.294838 0.077408
v 0.375151 0.242940 -0.010319
v 0.375151 0.242940 0.010319
v 0.415459 0.294838 -0.014255
v 0.415459 0.294838 0.014255
vt 0.337137 0.915978
vt 0.338261 0.907520
vt 0.365539 0.907520
vt 0.366663 0.915978
vt 0.360875 0.950349
vt 0.354277 0.948869
vt 0.354277 0.912964
vt 0.360875 0.911484
vt 0.366663 0.899062
vt 0.365539 0.907520
vt 0.338261 0.907520
vt 0.337137 0.899062
vt 0.347678 0.911484
vt 0.354277 0.912964
vt 0.354277 0.948869
vt 0.347678 0.950349
vt 0.336846 0.956148
vt 0.336846 0.906547
vt 0.366714 0.906547
vt 0.366714 0.956148
vt 0.358205 0.937975
vt 0.358205 0.951603
vt 0.354876 0.950433
vt 0.354876 0.939146
vt 0.349507 0.937451
vt 0.359029 0.937433
vt 0.362716 0.943601
vt 0.345804 0.943616
vt 0.359012 0.921895
vt 0.362716 0.915738
vt 0.349489 0.921908
vt 0.345804 0.915733
vt 0.358778 0.919673
vt 0.349411 0.919751
vt 0.344889 0.907300
vt 0.363366 0.907199
vt 0.337137 0.922279
vt 0.352794 0.922279
vt 0.350817 0.928580
vt 0.339114 0.928580
vt 0.352794 0.922279
vt 0.337137 0.922279
vt 0.339114 0.915978
vt 0.350817 0.915978
vt 0.355586 0.934969
vt 0.355586 0.921341
vt 0.358915 0.922512
vt 0.358915 0.933799
vt 0.344319 0.939035
vt 0.344319 0.913469
vt 0.355671 0.912374
vt 0.352273 0.944344
vt 0.349786 0.936272
vt 0.358435 0.936146
vt 0.363366 0.946412
vt 0.344640 0.946474
vt 0.363487 0.911839
vt 0.363487 0.948349
vt 0.345033 0.948349
vt 0.345033 0.911839
vt 0.366843 0.914271
vt 0.364141 0.939695
vt 0.355671 0.944133
vt 0.355671 0.911983
vt 0.347581 0.899141
vt 0.360939 0.899141
vt 0.362574 0.951394
vt 0.357156 0.953756
vt 0.357544 0.964957
vt 0.350976 0.964957
vt 0.349723 0.958363
vt 0.358797 0.958363
vt 0.349779 0.953756
vt 0.344641 0.950835
vt 0.358690 0.964747
vt 0.349418 0.964806
vt 0.000000 0.000000
vt 0.000000 0.000000
vt 0.000000 0.000000
vt 0.000000 0.000000
vt 0.342272 0.951720
vt 0.339602 0.951720
vt 0.339092 0.943216
vt 0.342782 0.943216
vt 0.354876 0.951603
vt 0.347465 0.948216
vt 0.352245 0.934969
vt 0.354876 0.938620
vt 0.360261 0.915733
vt 0.348243 0.915733
vt 0.353146 0.900509
vt 0.355359 0.900509
vt 0.355586 0.934299
vt 0.347465 0.934969
vt 0.351872 0.922757
vt 0.355586 0.920216
vt 0.357541 0.915567
vt 0.351131 0.915567
vt 0.353535 0.901020
vt 0.355137 0.901020
vn -0.9753 0.2208 0.0000
vn 0.0000 0.1351 -0.9908
vn 0.9753 0.2208 0.0000
vn 0.0000 0.1351 0.9908
vn 0.0000 -1.0000 0.0000
vn 0.0000 0.3174 -0.9483
vn -0.2323 0.9727 0.0000
vn 0.0000 0.9263 -0.3768
vn 0.2323 0.9727 0.0000
vn 0.0000 0.9263 0.3768
vn 0.1283 -0.9917 0.0000
vn 0.9376 0.3477 0.0000
vn -0.9376 0.3477 0.0000
vn 0.0000 0.3174 0.9483
vn -0.0111 -0.2297 0.9732
vn -0.5383 -0.8428 0.0000
vn -0.0557 -0.7366 0.6740
vn -0.0557 -0.7366 -0.6740
vn 0.0000 1.0000 0.0000
vn -0.0111 -0.2297 -0.9732
vn 0.9787 -0.2054 0.0000
vn -0.3583 -0.3852 -0.8504
vn -0.9267 -0.3759 0.0000
vn -0.3583 -0.3852 0.8504
vn -0.2440 -0.9698 0.0000
vn -0.9813 0.1926 0.0000
vn 0.7898 -0.6134 0.0000
vn 0.2795 -0.3277 -0.9025
vn 0.2795 -0.3277 0.9025
vn 0.3180 -0.9481 0.0000
usemtl None
s off
f 1/1/1 9/2/1 10/3/1 3/4/1
f 3/5/2 10/6/2 11/7/2 7/8/2
f 7/9/3 11/10/3 12/11/3 5/12/3
f 5/13/4 12/14/4 9/15/4 1/16/4
f 3/17/5 7/18/5 5/19/5 1/20/5
f 8/21/6 4/22/6 14/23/6 15/24/6
f 2/25/7 4/26/7 10/27/7 9/28/7
f 4/26/8 8/29/8 11/30/8 10/27/8
f 8/29/9 6/31/9 12/32/9 11/30/9
f 6/31/10 2/25/10 9/28/10 12/32/10
f 16/33/11 15/34/11 19/35/11 20/36/11
f 6/37/12 8/38/12 15/39/12 16/40/12
f 4/41/13 2/42/13 13/43/13 14/44/13
f 2/45/14 6/46/14 16/47/14 13/48/14
f 17/49/15 20/50/15 24/51/15 21/52/15
f 14/53/16 13/54/16 17/55/16 18/56/16
f 13/54/17 16/33/17 20/36/17 17/55/17
f 15/34/18 14/53/18 18/56/18 19/35/18
f 23/57/19 22/58/19 21/59/19 24/60/19
f 19/61/20 18/62/20 22/63/20 23/64/20
f 20/65/21 19/66/21 23/57/21 24/60/21
f 22/63/22 18/62/22 26/67/22 28/68/22
f 26/69/23 25/70/23 27/71/23 28/72/23
f 21/59/19 22/58/19 28/72/19 27/71/19
f 17/49/24 21/52/24 27/73/24 25/74/24
f 18/56/25 17/55/25 25/75/25 26/76/25
f 30/77/26 32/78/26 31/79/26 29/80/26
f 34/81/27 33/82/27 35/83/27 36/84/27
f 29/85/28 31/86/28 35/87/28 33/88/28
f 31/89/19 32/90/19 36/91/19 35/92/19
f 32/93/29 30/94/29 34/95/29 36/96/29
f 30/97/30 29/98/30 33/99/30 34/100/30
