# Blender v2.79 (sub 0) OBJ File: 'LowPoly MasterFile.blend'
# www.blender.org
mtllib Bellows.mtl
o Bellows
v 0.197725 0.231896 -0.290191
v 0.208097 0.395599 -0.290776
v 0.363143 0.225045 -0.025263
v 0.366906 0.455540 -0.024880
v 0.363143 0.225045 0.025263
v 0.366906 0.455540 0.024880
v 0.197725 0.231896 0.290191
v 0.208097 0.395599 0.290776
v -0.254071 0.225806 0.144831
v -0.252585 0.287050 0.144692
v -0.254071 0.225806 -0.144831
v -0.252585 0.287050 -0.144692
v 0.197725 0.164239 -0.290191
v 0.363143 0.200062 -0.025263
v 0.363930 0.481375 -0.025174
v 0.197725 0.435145 -0.290191
v 0.363143 0.200062 0.025263
v 0.363930 0.481375 0.025174
v 0.197725 0.164239 0.290191
v 0.197725 0.435145 0.290191
v -0.292052 0.209943 0.055463
v -0.292052 0.295530 0.055463
v -0.292052 0.295530 -0.055463
v -0.292052 0.209943 -0.055463
v 0.197327 0.240867 -0.253571
v 0.330210 0.242243 -0.126335
v 0.335464 0.423289 -0.122857
v 0.196950 0.383015 -0.248049
v 0.330210 0.242243 0.126335
v 0.335464 0.423289 0.122857
v 0.197327 0.240867 0.253571
v 0.196950 0.383015 0.248049
v -0.268428 0.220489 0.158735
v -0.267510 0.291879 0.159264
v -0.267510 0.291879 -0.159264
v -0.268428 0.220489 -0.158735
v -0.292052 0.312263 0.145095
v -0.292052 0.164239 0.145095
v -0.292052 0.164239 -0.145095
v -0.292052 0.312263 -0.145095
v -0.482192 0.245718 0.016570
v -0.482192 0.220148 0.016570
v -0.482192 0.220148 -0.016570
v -0.482192 0.245718 -0.016570
v 0.363143 0.164239 -0.145095
v 0.363143 0.164239 0.145096
v 0.363143 0.488203 0.145096
v 0.363143 0.488203 -0.145095
v 0.363143 0.231896 -0.145095
v 0.363143 0.231896 0.145096
v 0.367680 0.448821 0.142476
v 0.367680 0.448821 -0.142476
v 0.576644 0.212319 -0.014189
v 0.576644 0.212319 0.014189
v 0.575507 0.553626 0.014139
v 0.575507 0.553626 -0.014138
v 0.576644 0.237302 -0.014189
v 0.576644 0.237302 0.014189
v 0.582330 0.528532 0.013973
v 0.582330 0.528532 -0.013973
v -0.302118 -0.001397 0.046037
v -0.235718 0.210716 0.035072
v -0.302118 -0.001397 -0.046037
v -0.235718 0.210716 -0.035072
v -0.210045 -0.001397 0.046037
v -0.165574 0.210716 0.035072
v -0.210045 -0.001397 -0.046037
v -0.165574 0.210716 -0.035072
v 0.209424 -0.001397 0.263954
v 0.184314 0.210716 0.216267
v 0.209424 -0.001397 0.171881
v 0.184314 0.210716 0.146123
v 0.301497 -0.001397 0.263954
v 0.254458 0.210716 0.216267
v 0.301497 -0.001397 0.171881
v 0.254458 0.210716 0.146123
v 0.209424 -0.001397 -0.164587
v 0.184314 0.210716 -0.142380
v 0.209424 -0.001397 -0.256660
v 0.184314 0.210716 -0.212524
v 0.301497 -0.001397 -0.164587
v 0.254458 0.210716 -0.142380
v 0.301497 -0.001397 -0.256660
v 0.254458 0.210716 -0.212524
vt 0.700157 0.893624
vt 0.708760 0.893705
vt 0.711368 0.904958
vt 0.700413 0.904748
vt 0.711368 0.919819
vt 0.700413 0.920029
vt 0.708760 0.931073
vt 0.700157 0.931154
vt 0.703539 0.959085
vt 0.699837 0.959248
vt 0.170414 0.582025
vt 0.160431 0.547283
vt 0.200363 0.547283
vt 0.190380 0.582025
vt 0.342925 0.948881
vt 0.361281 0.948881
vt 0.354845 0.980392
vt 0.349361 0.980392
vt 0.699837 0.865530
vt 0.703539 0.865693
vt 0.201240 0.547349
vt 0.191257 0.581046
vt 0.171291 0.581046
vt 0.161308 0.547349
vt 0.211686 0.532237
vt 0.211686 0.506373
vt 0.219639 0.506373
vt 0.219639 0.532237
vt 0.247839 0.504236
vt 0.249271 0.530557
vt 0.244465 0.530537
vt 0.243177 0.503963
vt 0.791775 0.597409
vt 0.792599 0.593612
vt 0.826037 0.593612
vt 0.825792 0.597490
vt 0.792590 0.601288
vt 0.791775 0.597490
vt 0.825792 0.597490
vt 0.826028 0.601367
vt 0.211686 0.506373
vt 0.211686 0.532236
vt 0.203733 0.532236
vt 0.203733 0.506373
vt 0.237083 0.530557
vt 0.238515 0.504236
vt 0.243177 0.503964
vt 0.241888 0.530537
vt 0.210345 0.589167
vt 0.203689 0.592280
vt 0.239940 0.589758
vt 0.243177 0.592280
vt 0.162907 0.580356
vt 0.174752 0.580180
vt 0.178135 0.584882
vt 0.153574 0.584882
vt 0.174752 0.580180
vt 0.162907 0.580004
vt 0.153574 0.575478
vt 0.178135 0.575478
vt 0.213027 0.589167
vt 0.219683 0.592280
vt 0.246413 0.589758
vt 0.243177 0.592280
vt 0.147409 0.513782
vt 0.163716 0.529739
vt 0.161389 0.534020
vt 0.142744 0.514098
vt 0.195555 0.529526
vt 0.212030 0.512509
vt 0.217316 0.514627
vt 0.197988 0.534624
vt 0.195049 0.529739
vt 0.197375 0.534020
vt 0.165085 0.529526
vt 0.162652 0.534624
vt 0.211356 0.513782
vt 0.216021 0.514098
vt 0.148610 0.512509
vt 0.143325 0.514627
vt 0.143204 0.530704
vt 0.140965 0.587459
vt 0.138763 0.588702
vt 0.138763 0.529469
vt 0.136403 0.587569
vt 0.133996 0.530016
vt 0.138763 0.527052
vt 0.138763 0.588702
vt 0.139846 0.571308
vt 0.140090 0.587643
vt 0.134523 0.588908
vt 0.134523 0.569869
vt 0.140090 0.587643
vt 0.140334 0.571308
vt 0.145658 0.569869
vt 0.145658 0.588908
vt 0.145443 0.587458
vt 0.143204 0.530706
vt 0.147645 0.529470
vt 0.147645 0.588702
vt 0.133996 0.530016
vt 0.131589 0.587569
vt 0.129229 0.588702
vt 0.129228 0.527051
vt 0.190380 0.535331
vt 0.170414 0.535331
vt 0.176676 0.572404
vt 0.176676 0.582464
vt 0.166141 0.587836
vt 0.166141 0.570437
vt 0.189715 0.582464
vt 0.200251 0.587836
vt 0.189715 0.572404
vt 0.200251 0.570437
vt 0.374696 0.944942
vt 0.371570 0.944942
vt 0.371570 0.940891
vt 0.374696 0.940891
vt 0.342925 0.948519
vt 0.361281 0.948519
vt 0.354845 0.981046
vt 0.349361 0.981046
vt 0.348818 0.950090
vt 0.362053 0.950090
vt 0.354351 0.980102
vt 0.350396 0.980102
vt 0.342495 0.950136
vt 0.355730 0.950136
vt 0.354152 0.980147
vt 0.350198 0.980147
vt 0.149439 0.521459
vt 0.149439 0.527675
vt 0.145032 0.542417
vt 0.145032 0.506717
vt 0.157387 0.527664
vt 0.157387 0.521470
vt 0.158232 0.506717
vt 0.158232 0.542417
vt 0.152512 0.527675
vt 0.152512 0.521459
vt 0.153355 0.506717
vt 0.153355 0.542417
vt 0.154188 0.521506
vt 0.154188 0.527628
vt 0.153355 0.542095
vt 0.153355 0.507039
vt 0.374624 0.922428
vt 0.374624 0.925898
vt 0.371570 0.925898
vt 0.371570 0.922428
vt 0.371570 0.922408
vt 0.371570 0.918991
vt 0.374750 0.918971
vt 0.374750 0.922428
vt 0.789602 0.617336
vt 0.789602 0.609102
vt 0.827242 0.610906
vt 0.827242 0.615531
vt 0.789602 0.617670
vt 0.789602 0.609338
vt 0.826600 0.611165
vt 0.826600 0.615844
vt 0.791989 0.605093
vt 0.791775 0.601367
vt 0.823764 0.601367
vt 0.823977 0.605093
vt 0.791775 0.608819
vt 0.791989 0.605093
vt 0.823977 0.605093
vt 0.823764 0.608819
vt 0.790832 0.618034
vt 0.790832 0.609673
vt 0.826221 0.611505
vt 0.826221 0.616201
vt 0.790318 0.617825
vt 0.790318 0.609464
vt 0.825707 0.611297
vt 0.825707 0.615993
vt 0.227349 0.515567
vt 0.225534 0.552348
vt 0.213927 0.552348
vt 0.212112 0.515567
vt 0.227736 0.512707
vt 0.224102 0.550209
vt 0.212478 0.552643
vt 0.212478 0.515902
vt 0.227205 0.515567
vt 0.225391 0.551431
vt 0.213783 0.551431
vt 0.211969 0.515567
vt 0.227334 0.517217
vt 0.223791 0.553786
vt 0.212456 0.550243
vt 0.212456 0.512565
vt 0.171571 0.510496
vt 0.182828 0.510496
vt 0.182828 0.521754
vt 0.171571 0.521754
vt 0.228246 0.515077
vt 0.224644 0.551114
vt 0.213119 0.552504
vt 0.213119 0.516901
vt 0.228294 0.517121
vt 0.224669 0.553366
vt 0.213070 0.550813
vt 0.213070 0.513769
vt 0.228146 0.517087
vt 0.224602 0.553119
vt 0.213264 0.550630
vt 0.213264 0.513821
vt 0.228128 0.514371
vt 0.224440 0.551852
vt 0.212642 0.553214
vt 0.212642 0.516160
vt 0.171571 0.533011
vt 0.182828 0.533011
vt 0.182828 0.544268
vt 0.171571 0.544268
vt 0.228438 0.517519
vt 0.224885 0.552878
vt 0.213517 0.550529
vt 0.213517 0.514436
vt 0.228722 0.517077
vt 0.225094 0.553826
vt 0.213488 0.551306
vt 0.213488 0.513769
vt 0.228216 0.514436
vt 0.224606 0.550946
vt 0.213059 0.552126
vt 0.213059 0.515985
vt 0.227958 0.514371
vt 0.224271 0.551164
vt 0.212476 0.552553
vt 0.212476 0.516194
vt 0.171571 0.521754
vt 0.182828 0.521754
vt 0.182828 0.533011
vt 0.171571 0.533011
vt 0.171291 0.535968
vt 0.191257 0.535968
vn 0.6802 0.0101 -0.7330
vn 0.9996 -0.0290 -0.0000
vn 0.6802 0.0101 0.7330
vn -0.2324 0.0283 0.9722
vn -0.2434 0.9699 -0.0000
vn -0.0536 -0.9986 0.0000
vn -0.2324 0.0283 -0.9722
vn 0.0000 -1.0000 0.0000
vn 0.6594 0.0000 -0.7518
vn 0.6478 0.1029 -0.7548
vn 0.0510 0.0008 -0.9987
vn 0.0510 0.0008 0.9987
vn 0.6594 0.0000 0.7518
vn 0.6478 0.1029 0.7548
vn -0.2769 -0.0528 0.9594
vn -0.2892 0.0666 0.9549
vn -0.5000 0.0000 0.8660
vn -0.5000 -0.0000 -0.8660
vn -0.2769 -0.0528 -0.9594
vn -0.2892 0.0666 -0.9549
vn 0.1938 0.9567 -0.2171
vn 0.4607 -0.8630 -0.2072
vn 0.2997 0.9540 0.0000
vn 0.6211 -0.7837 0.0000
vn 0.1938 0.9567 0.2171
vn 0.4607 -0.8630 0.2072
vn -0.0925 0.9645 0.2472
vn 0.1291 -0.9464 0.2961
vn 0.6972 -0.0147 0.7167
vn 0.6972 -0.0147 -0.7167
vn -0.0925 0.9645 -0.2472
vn 0.1291 -0.9464 -0.2961
vn -0.3054 0.9522 0.0000
vn -1.0000 0.0000 0.0000
vn -0.2534 0.9674 0.0000
vn -0.2004 0.0000 0.9797
vn -0.2004 0.0000 -0.9797
vn 1.0000 -0.0000 0.0000
vn 0.9934 0.1144 0.0000
vn 0.9650 0.2624 -0.0000
vn 0.3209 -0.9471 -0.0000
vn -0.3232 0.9463 0.0000
vn 0.0518 0.0000 0.9987
vn 0.0518 0.0000 -0.9987
vn -0.0573 0.9984 0.0000
vn 0.0573 -0.9984 0.0000
vn -0.9543 0.2987 0.0000
vn 0.0000 0.0516 -0.9987
vn 0.9787 -0.2052 0.0000
vn 0.0000 0.0516 0.9987
vn -0.9931 -0.1176 0.0000
vn 0.0000 -0.1206 -0.9927
vn 0.9763 0.2165 0.0000
vn 0.0000 0.2193 0.9756
vn 0.0000 0.2037 -0.9790
vn 0.0000 -0.1041 0.9946
usemtl None
s off
f 25/1/1 28/2/1 27/3/1 26/4/1
f 26/4/2 27/3/2 30/5/2 29/6/2
f 29/6/3 30/5/3 32/7/3 31/8/3
f 31/8/4 32/7/4 10/9/4 9/10/4
f 37/11/5 20/12/5 16/13/5 40/14/5
f 24/15/6 21/16/6 42/17/6 43/18/6
f 11/19/7 12/20/7 28/2/7 25/1/7
f 19/21/8 38/22/8 39/23/8 13/24/8
f 1/25/9 49/26/9 45/27/9 13/28/9
f 52/29/10 2/30/10 16/31/10 48/32/10
f 4/33/11 15/34/11 56/35/11 60/36/11
f 18/37/12 6/38/12 59/39/12 55/40/12
f 50/41/13 7/42/13 19/43/13 46/44/13
f 8/45/14 51/46/14 47/47/14 20/48/14
f 7/42/15 33/49/15 38/50/15 19/43/15
f 34/51/16 8/45/16 20/48/16 37/52/16
f 33/53/17 34/54/17 37/55/17 38/56/17
f 35/57/18 36/58/18 39/59/18 40/60/18
f 36/61/19 1/25/19 13/28/19 39/62/19
f 2/30/20 35/63/20 40/64/20 16/31/20
f 25/65/21 26/66/21 49/67/21 1/68/21
f 27/69/22 28/70/22 2/71/22 52/72/22
f 26/66/23 29/73/23 50/74/23 49/67/23
f 30/75/24 27/69/24 52/72/24 51/76/24
f 29/73/25 31/77/25 7/78/25 50/74/25
f 32/79/26 30/75/26 51/76/26 8/80/26
f 31/81/27 9/82/27 33/83/27 7/84/27
f 10/85/28 32/86/28 8/87/28 34/88/28
f 9/89/29 10/90/29 34/91/29 33/92/29
f 12/93/30 11/94/30 36/95/30 35/96/30
f 11/97/31 25/98/31 1/99/31 36/100/31
f 28/101/32 12/102/32 35/103/32 2/104/32
f 48/105/33 16/13/33 20/12/33 47/106/33
f 22/107/34 21/108/34 38/109/34 37/110/34
f 21/108/34 24/111/34 39/112/34 38/109/34
f 23/113/34 22/107/34 37/110/34 40/114/34
f 24/111/34 23/113/34 40/114/34 39/112/34
f 42/115/34 41/116/34 44/117/34 43/118/34
f 22/119/35 23/120/35 44/121/35 41/122/35
f 21/123/36 22/124/36 41/125/36 42/126/36
f 23/127/37 24/128/37 43/129/37 44/130/37
f 14/131/38 17/132/38 46/133/38 45/134/38
f 18/135/39 15/136/39 48/137/39 47/138/39
f 5/139/38 3/140/38 49/141/38 50/142/38
f 4/143/39 6/144/39 51/145/39 52/146/39
f 3/140/38 14/131/38 45/134/38 49/141/38
f 15/136/39 4/143/39 52/146/39 48/137/39
f 17/132/38 5/139/38 50/142/38 46/133/38
f 6/144/39 18/135/39 47/138/39 51/145/39
f 57/147/38 58/148/38 54/149/38 53/150/38
f 59/151/40 60/152/40 56/153/40 55/154/40
f 6/155/41 4/156/41 60/157/41 59/158/41
f 15/159/42 18/160/42 55/161/42 56/162/42
f 5/163/43 17/164/43 54/165/43 58/166/43
f 14/167/44 3/168/44 57/169/44 53/170/44
f 3/171/45 5/172/45 58/173/45 57/174/45
f 17/175/46 14/176/46 53/177/46 54/178/46
f 61/179/47 62/180/47 64/181/47 63/182/47
f 63/183/48 64/184/48 68/185/48 67/186/48
f 67/187/49 68/188/49 66/189/49 65/190/49
f 65/191/50 66/192/50 62/193/50 61/194/50
f 63/195/8 67/196/8 65/197/8 61/198/8
f 69/199/51 70/200/51 72/201/51 71/202/51
f 71/203/52 72/204/52 76/205/52 75/206/52
f 75/207/53 76/208/53 74/209/53 73/210/53
f 73/211/54 74/212/54 70/213/54 69/214/54
f 71/215/8 75/216/8 73/217/8 69/218/8
f 77/219/51 78/220/51 80/221/51 79/222/51
f 79/223/55 80/224/55 84/225/55 83/226/55
f 83/227/53 84/228/53 82/229/53 81/230/53
f 81/231/56 82/232/56 78/233/56 77/234/56
f 79/235/8 83/236/8 81/237/8 77/238/8
f 13/24/8 45/239/8 46/240/8 19/21/8
