# Blender v2.79 (sub 0) OBJ File: 'LowPoly MasterFile.blend'
# www.blender.org
mtllib Blacksmith_Hammer.mtl
o Blacksmith_Hammer
v -0.018835 0.121161 0.023371
v -0.018835 0.177342 0.023371
v -0.018835 0.121161 -0.023371
v -0.018835 0.177342 -0.023371
v 0.018835 0.121161 0.023371
v 0.018835 0.177342 0.023371
v 0.018835 0.121161 -0.023371
v 0.018835 0.177342 -0.023371
v -0.022621 0.112018 -0.030977
v -0.022621 0.112018 0.030977
v -0.022621 0.186485 0.030977
v -0.022621 0.186485 -0.030977
v 0.022621 0.186485 -0.030977
v 0.022621 0.112018 -0.030977
v 0.022621 0.112018 0.030977
v 0.022621 0.186485 0.030977
v -0.051563 0.116853 -0.026955
v -0.051563 0.116853 0.026955
v -0.051563 0.181649 0.026955
v -0.051563 0.181649 -0.026955
v 0.077766 0.181649 -0.026955
v 0.077766 0.116853 -0.026955
v 0.077766 0.116853 0.026955
v 0.077766 0.181649 0.026955
v -0.000000 -0.046578 0.013775
v -0.000000 0.199111 0.013775
v -0.013775 -0.046578 0.000000
v -0.013775 0.199111 0.000000
v 0.013775 -0.046578 -0.000000
v 0.013775 0.199111 -0.000000
v -0.000000 -0.046578 -0.013775
v -0.000000 0.199111 -0.013775
v -0.000000 0.097737 0.009626
v -0.009626 0.097737 0.000000
v -0.000000 0.097737 -0.009626
v 0.009626 0.097737 -0.000000
vt 0.353030 0.948742
vt 0.360253 0.948745
vt 0.361428 0.950274
vt 0.351854 0.950271
vt 0.361499 0.949144
vt 0.351800 0.949144
vt 0.351800 0.942642
vt 0.361499 0.942642
vt 0.353111 0.948745
vt 0.360334 0.948745
vt 0.361509 0.950274
vt 0.351936 0.950274
vt 0.351775 0.942538
vt 0.361473 0.942538
vt 0.361473 0.949041
vt 0.351775 0.949041
vt 0.353032 0.942921
vt 0.360255 0.942924
vt 0.360334 0.942924
vt 0.353111 0.942924
vt 0.361509 0.941395
vt 0.351936 0.941395
vt 0.352558 0.932841
vt 0.360888 0.932841
vt 0.350197 0.950508
vt 0.363052 0.950508
vt 0.362217 0.955552
vt 0.351032 0.955552
vt 0.350197 0.941072
vt 0.363052 0.941072
vt 0.351857 0.941392
vt 0.361431 0.941395
vt 0.363077 0.950611
vt 0.350222 0.950611
vt 0.350222 0.941175
vt 0.363077 0.941175
vt 0.364198 0.902544
vt 0.364198 0.929915
vt 0.341426 0.929915
vt 0.341426 0.902544
vt 0.364208 0.902544
vt 0.364208 0.929915
vt 0.341436 0.929915
vt 0.341436 0.902544
vt 0.351057 0.931630
vt 0.362242 0.931630
vt 0.360888 0.954808
vt 0.352558 0.954808
vt 0.360805 0.954808
vt 0.352474 0.954805
vt 0.351032 0.931527
vt 0.362217 0.931527
vt 0.352482 0.932838
vt 0.360812 0.932841
vt 0.362242 0.955655
vt 0.351057 0.955655
vt 0.149242 0.537153
vt 0.149230 0.558216
vt 0.145200 0.558099
vt 0.146417 0.537140
vt 0.152060 0.537141
vt 0.153263 0.558102
vt 0.149230 0.558216
vt 0.149234 0.537153
vt 0.145200 0.558100
vt 0.146409 0.537141
vt 0.152068 0.537142
vt 0.153263 0.558103
vt 0.157832 0.551009
vt 0.166061 0.551009
vt 0.166061 0.559238
vt 0.157832 0.559238
vt 0.157842 0.559238
vt 0.157842 0.551009
vt 0.166071 0.551009
vt 0.166071 0.559238
vt 0.153288 0.507256
vt 0.149253 0.507174
vt 0.149238 0.507174
vt 0.145200 0.507254
vt 0.153273 0.507255
vt 0.145215 0.507254
vn 0.9239 -0.3826 0.0000
vn 0.0000 0.0000 -1.0000
vn 0.9239 0.3826 0.0000
vn 0.0000 0.0000 1.0000
vn 0.0000 -1.0000 0.0000
vn 0.0000 1.0000 0.0000
vn 0.0874 0.9962 0.0000
vn -0.1377 0.0000 0.9905
vn -0.8952 0.0000 0.4456
vn -0.9239 -0.3826 0.0000
vn 0.8952 0.0000 -0.4456
vn 0.8952 0.0000 0.4456
vn -0.9239 0.3826 0.0000
vn -0.8952 0.0000 -0.4456
vn -1.0000 0.0000 0.0000
vn 1.0000 0.0000 0.0000
vn 0.0728 0.0000 -0.9973
vn -0.1648 0.9863 0.0000
vn -0.1648 -0.9863 0.0000
vn 0.0728 0.0000 0.9973
vn 0.0874 -0.9962 0.0000
vn -0.1377 0.0000 -0.9905
vn -0.7068 -0.0289 0.7068
vn -0.7068 -0.0289 -0.7068
vn 0.7068 -0.0289 -0.7068
vn 0.7068 -0.0289 0.7068
vn 0.7070 0.0203 0.7070
vn 0.7070 0.0203 -0.7070
vn -0.7070 0.0203 -0.7070
vn -0.7070 0.0203 0.7070
usemtl None
s off
f 3/1/1 1/2/1 10/3/1 9/4/1
f 3/5/2 4/6/2 8/7/2 7/8/2
f 2/9/3 4/10/3 12/11/3 11/12/3
f 5/13/4 6/14/4 2/15/4 1/16/4
f 3/1/5 7/17/5 5/18/5 1/2/5
f 8/19/6 4/10/6 2/9/6 6/20/6
f 13/21/7 16/22/7 24/23/7 21/24/7
f 10/25/8 11/26/8 19/27/8 18/28/8
f 6/14/9 5/13/9 15/29/9 16/30/9
f 5/18/10 7/17/10 14/31/10 15/32/10
f 4/6/11 3/5/11 9/33/11 12/34/11
f 1/16/12 2/15/12 11/26/12 10/25/12
f 8/19/13 6/20/13 16/22/13 13/21/13
f 7/8/14 8/7/14 13/35/14 14/36/14
f 18/37/15 19/38/15 20/39/15 17/40/15
f 22/41/16 21/42/16 24/43/16 23/44/16
f 14/36/17 13/35/17 21/45/17 22/46/17
f 11/12/18 12/11/18 20/47/18 19/48/18
f 9/4/19 10/3/19 18/49/19 17/50/19
f 16/30/20 15/29/20 23/51/20 24/52/20
f 15/32/21 14/31/21 22/53/21 23/54/21
f 12/34/22 9/33/22 17/55/22 20/56/22
f 33/57/23 26/58/23 28/59/23 34/60/23
f 34/61/24 28/62/24 32/63/24 35/64/24
f 35/64/25 32/63/25 30/65/25 36/66/25
f 36/67/26 30/68/26 26/58/26 33/57/26
f 27/69/5 31/70/5 29/71/5 25/72/5
f 32/73/6 28/74/6 26/75/6 30/76/6
f 29/77/27 36/67/27 33/57/27 25/78/27
f 31/79/28 35/64/28 36/66/28 29/80/28
f 27/81/29 34/61/29 35/64/29 31/79/29
f 25/78/30 33/57/30 34/60/30 27/82/30
