# Blender v2.79 (sub 0) OBJ File: 'LowPoly MasterFile.blend'
# www.blender.org
mtllib Hearth.mtl
o Hearth
v -0.531983 0.050684 -0.342824
v -0.789835 0.896291 0.270611
v -0.877533 -0.000001 -0.399953
v -0.789835 0.896291 -0.449411
v 0.531983 0.050684 -0.342824
v 0.789835 0.896291 0.270611
v 0.877533 -0.000001 -0.399953
v 0.789835 0.896291 -0.449411
v -0.837575 1.140382 0.328583
v -0.837575 1.140382 -0.449411
v 0.837575 1.140382 -0.449411
v 0.837575 1.140382 0.328583
v -0.531983 0.729396 -0.202777
v -0.698878 0.866554 -0.399953
v 0.698878 0.866554 -0.399953
v 0.531983 0.729396 -0.202777
v -0.698878 1.140382 0.166895
v -0.698878 1.140382 -0.399953
v 0.698878 1.140382 -0.399953
v 0.698878 1.140382 0.166895
v -0.446041 1.266995 0.064359
v -0.446041 1.266995 -0.399953
v 0.446041 1.266995 -0.399953
v 0.446041 1.266995 0.064359
v -0.397424 1.667442 0.000125
v -0.397424 1.667442 -0.399953
v 0.397424 1.667442 -0.399953
v 0.397424 1.667442 0.000125
v -0.208339 1.711443 -0.150750
v -0.208339 1.711443 -0.399953
v 0.208339 1.711443 -0.399953
v 0.208339 1.711443 -0.150750
v -0.877533 -0.000001 0.166895
v -0.698878 0.866554 0.166895
v 0.698878 0.866554 0.166895
v 0.877533 -0.000001 0.166895
v -0.531983 0.050684 0.166895
v -0.531983 0.729396 0.166895
v 0.531983 0.729396 0.166895
v 0.531983 0.050684 0.166895
v -0.208339 1.763581 -0.150750
v -0.208339 1.763581 -0.399953
v 0.208339 1.763581 -0.399953
v 0.208339 1.763581 -0.150750
vt 0.492507 0.504285
vt 0.492507 0.626864
vt 0.414643 0.626864
vt 0.414643 0.504285
vt 0.600421 0.605479
vt 0.578128 0.714579
vt 0.403711 0.714579
vt 0.381418 0.605479
vt 0.494199 0.504285
vt 0.494199 0.626864
vt 0.416335 0.626864
vt 0.416335 0.504285
vt 0.624403 0.506142
vt 0.624403 0.589173
vt 0.496929 0.589173
vt 0.496929 0.506142
vt 0.417316 0.704601
vt 0.477545 0.704601
vt 0.482394 0.725406
vt 0.417316 0.725406
vt 0.416261 0.627841
vt 0.494124 0.627841
vt 0.494124 0.666683
vt 0.430345 0.666683
vt 0.449805 0.707569
vt 0.557555 0.707569
vt 0.560811 0.724682
vt 0.446549 0.724682
vt 0.449805 0.707491
vt 0.557555 0.707528
vt 0.560805 0.724178
vt 0.446543 0.724139
vt 0.417420 0.704472
vt 0.477649 0.704472
vt 0.477648 0.725277
vt 0.412570 0.725277
vt 0.421453 0.696596
vt 0.468869 0.696596
vt 0.456011 0.703556
vt 0.551352 0.703589
vt 0.426095 0.696467
vt 0.473511 0.696467
vt 0.456010 0.700210
vt 0.551350 0.700210
vt 0.468869 0.737007
vt 0.421453 0.737007
vt 0.551343 0.727549
vt 0.456003 0.727516
vt 0.473511 0.736879
vt 0.426095 0.736879
vt 0.551350 0.735711
vt 0.456009 0.735711
vt 0.494124 0.722093
vt 0.439169 0.722093
vt 0.417124 0.627804
vt 0.494988 0.627804
vt 0.480903 0.666645
vt 0.417124 0.666645
vt 0.377957 0.684425
vt 0.538014 0.684425
vt 0.509062 0.703082
vt 0.406909 0.703082
vt 0.378723 0.633432
vt 0.553140 0.633432
vt 0.521590 0.649231
vt 0.410273 0.649231
vt 0.365971 0.959443
vt 0.336847 0.958488
vt 0.348294 0.944716
vt 0.366435 0.945311
vt 0.472080 0.722056
vt 0.417124 0.722056
vt 0.503495 0.749523
vt 0.412477 0.749523
vt 0.515523 0.699201
vt 0.416339 0.699201
vt 0.424712 0.922159
vt 0.466773 0.922159
vt 0.466773 0.927422
vt 0.424712 0.927422
vt 0.336847 0.900595
vt 0.348294 0.914367
vt 0.491929 0.704691
vt 0.439934 0.704691
vt 0.365971 0.899639
vt 0.366435 0.913772
vt 0.466679 0.519452
vt 0.466679 0.607491
vt 0.445030 0.625282
vt 0.421857 0.511872
vt 0.422593 0.608721
vt 0.422593 0.520683
vt 0.467415 0.513102
vt 0.444241 0.626513
vt 0.562857 0.721236
vt 0.424846 0.721236
vt 0.380023 0.713656
vt 0.607680 0.713656
vt 0.419924 0.709613
vt 0.557936 0.709613
vt 0.579584 0.727404
vt 0.398276 0.727404
vt 0.480925 0.504704
vt 0.464446 0.584566
vt 0.420947 0.584566
vt 0.420947 0.504704
vt 0.429297 0.583874
vt 0.412818 0.504011
vt 0.472796 0.504012
vt 0.472796 0.583874
vt 0.047237 0.520425
vt 0.047237 0.610586
vt 0.004043 0.610586
vt 0.004043 0.520425
vt 0.400663 0.946748
vt 0.490824 0.946748
vt 0.490824 0.978074
vt 0.400663 0.978074
vt 0.297005 0.988711
vt 0.262151 0.988711
vt 0.262151 0.967866
vt 0.297005 0.967866
vt 0.491929 0.933717
vt 0.399557 0.933717
vt 0.399557 0.922159
vt 0.491929 0.922159
vt 0.491929 0.922159
vt 0.491929 0.927422
vt 0.399557 0.922159
vt 0.399557 0.927422
vn -0.9794 0.2019 0.0000
vn 0.0000 0.0000 -1.0000
vn 0.9794 0.2019 0.0000
vn 0.0000 -0.2021 0.9794
vn -0.9814 -0.1919 0.0000
vn 0.4478 0.8942 0.0000
vn 0.0000 -0.2311 0.9729
vn 0.9814 -0.1919 0.0000
vn -0.3107 -0.9505 0.0000
vn 0.0000 -0.8570 -0.5153
vn 0.3107 -0.9505 0.0000
vn 0.0000 -0.9613 0.2756
vn 0.0000 1.0000 0.0000
vn 0.9927 0.1205 0.0000
vn -0.4478 0.8942 0.0000
vn 0.0000 0.6293 0.7771
vn -0.2266 0.9740 0.0000
vn -0.9927 0.1205 0.0000
vn 0.0000 0.1584 0.9874
vn 0.0000 0.0000 1.0000
vn 0.0000 0.9600 0.2800
vn 0.2266 0.9740 0.0000
vn 1.0000 -0.0000 0.0000
vn -1.0000 -0.0000 0.0000
vn 0.0000 -1.0000 0.0000
usemtl None
s off
f 33/1/1 34/2/1 14/3/1 3/4/1
f 3/5/2 14/6/2 15/7/2 7/8/2
f 7/9/3 15/10/3 35/11/3 36/12/3
f 5/13/4 16/14/4 13/15/4 1/16/4
f 4/17/5 2/18/5 9/19/5 10/20/5
f 20/21/6 19/22/6 23/23/6 24/24/6
f 2/25/7 6/26/7 12/27/7 9/28/7
f 8/29/2 4/30/2 10/31/2 11/32/2
f 6/33/8 8/34/8 11/35/8 12/36/8
f 2/18/9 4/17/9 14/37/9 34/38/9
f 4/30/10 8/29/10 15/39/10 14/40/10
f 8/34/11 6/33/11 35/41/11 15/42/11
f 6/26/12 2/25/12 34/43/12 35/44/12
f 10/20/13 9/19/13 17/45/13 18/46/13
f 11/32/13 10/31/13 18/47/13 19/48/13
f 12/36/13 11/35/13 19/49/13 20/50/13
f 9/28/13 12/27/13 20/51/13 17/52/13
f 24/24/14 23/23/14 27/53/14 28/54/14
f 18/55/15 17/56/15 21/57/15 22/58/15
f 17/59/16 20/60/16 24/61/16 21/62/16
f 19/63/2 18/64/2 22/65/2 23/66/2
f 26/67/17 25/68/17 29/69/17 30/70/17
f 22/58/18 21/57/18 25/71/18 26/72/18
f 21/62/19 24/61/19 28/73/19 25/74/19
f 23/66/2 22/65/2 26/75/2 27/76/2
f 29/77/20 32/78/20 44/79/20 41/80/20
f 25/68/21 28/81/21 32/82/21 29/69/21
f 27/76/2 26/75/2 30/83/2 31/84/2
f 28/81/22 27/85/22 31/86/22 32/82/22
f 37/87/20 38/88/20 34/89/20 33/90/20
f 39/91/20 40/92/20 36/93/20 35/94/20
f 40/95/20 37/96/20 33/97/20 36/98/20
f 38/99/20 39/100/20 35/101/20 34/102/20
f 1/103/23 13/104/23 38/105/23 37/106/23
f 16/107/24 5/108/24 40/109/24 39/110/24
f 5/111/13 1/112/13 37/113/13 40/114/13
f 13/115/25 16/116/25 39/117/25 38/118/25
f 43/119/13 42/120/13 41/121/13 44/122/13
f 31/123/2 30/124/2 42/125/2 43/126/2
f 32/78/23 31/127/23 43/128/23 44/79/23
f 30/129/24 29/77/24 41/80/24 42/130/24
