# Blender v2.79 (sub 0) OBJ File: 'Delver.blend'
# www.blender.org
mtllib Mtn1.mtl
o Cylinder.007_Cylinder.026
v 0.000000 0.000000 -0.219126
v 0.000000 0.024931 -0.219126
v 0.154946 0.000000 -0.154946
v 0.154946 0.024931 -0.154946
v 0.219126 -0.000000 0.000000
v 0.219126 0.024931 0.000000
v 0.154946 -0.000000 0.154946
v 0.154946 0.024931 0.154946
v -0.000000 -0.000000 0.219126
v -0.000000 0.024931 0.219126
v -0.154946 -0.000000 0.154946
v -0.154946 0.024931 0.154946
v -0.219126 0.000000 -0.000000
v -0.219126 0.024931 0.000000
v -0.154946 0.000000 -0.154946
v -0.154946 0.024931 -0.154946
v 0.145036 0.041582 -0.145036
v -0.000000 0.041582 -0.205112
v 0.205112 0.041582 0.000000
v 0.145036 0.041582 0.145036
v -0.000000 0.041582 0.205112
v -0.145036 0.041582 0.145036
v -0.205112 0.041582 0.000000
v -0.145036 0.041582 -0.145036
v 0.038523 0.422593 -0.034850
v -0.000000 0.406163 -0.045536
v 0.045536 0.406163 0.000000
v 0.032199 0.406163 0.032199
v -0.032199 0.406163 0.032199
v -0.056148 0.393776 0.001176
v -0.032199 0.406163 -0.032198
v -0.000000 0.457897 0.000000
v -0.130335 0.041582 -0.130335
v 0.130335 0.041582 -0.130335
v 0.103257 0.126385 -0.101821
v 0.073660 0.255305 -0.073660
v -0.001622 0.236934 -0.100506
v -0.000398 0.138910 -0.166286
v -0.000000 0.041582 -0.184322
v -0.103643 0.134126 -0.104118
v -0.051917 0.288590 -0.081087
v -0.130335 0.041582 0.130335
v -0.112730 0.160269 0.114095
v -0.073660 0.255305 0.073660
v -0.104171 0.255305 0.000000
v -0.169177 0.134126 0.000000
v -0.184322 0.041582 0.000000
v 0.130335 0.041582 0.130335
v 0.116807 0.150548 0.115640
v 0.073660 0.255305 0.073660
v 0.001142 0.258178 0.113797
v -0.000000 0.134125 0.154648
v -0.000000 0.041582 0.184322
v 0.104171 0.255305 0.000000
v 0.172768 0.152065 0.005187
v 0.184322 0.041582 0.000000
v -0.000861 0.325114 -0.088626
v -0.051879 0.306384 -0.053013
v -0.054474 0.325114 0.054474
v 0.064713 0.325032 0.065858
v -0.068892 0.332069 0.000214
v 0.054474 0.325114 -0.054474
v 0.002768 0.360838 0.079931
v 0.089301 0.324457 0.002933
v -0.151286 0.226092 0.000000
v -0.086385 0.185213 0.085155
v -0.093964 0.186372 -0.093964
v 0.092344 0.206637 -0.096918
v 0.093964 0.186372 0.093964
v -0.000347 0.197983 0.120291
v 0.132227 0.210411 -0.002961
v -0.180139 0.087854 0.000000
v -0.119844 0.087854 0.119844
v -0.124337 0.090745 -0.124928
v 0.119844 0.087854 -0.119844
v -0.001379 0.086897 -0.181999
v 0.119844 0.087854 0.119844
v -0.000000 0.087854 0.160805
v 0.169485 0.087854 0.000000
vt 0.007624 0.296315
vt 0.013028 0.296315
vt 0.013028 0.332667
vt 0.007624 0.332667
vt 0.013028 0.369018
vt 0.007624 0.369018
vt 0.013027 0.405370
vt 0.007623 0.405370
vt 0.013027 0.441722
vt 0.007623 0.441722
vt 0.013026 0.478074
vt 0.007623 0.478074
vt 0.007625 0.187260
vt 0.013029 0.187260
vt 0.013029 0.223612
vt 0.007625 0.223612
vt 0.017599 0.406532
vt 0.017599 0.440559
vt 0.013029 0.259963
vt 0.007625 0.259963
vt 0.120877 0.306582
vt 0.142768 0.319846
vt 0.120955 0.320676
vt 0.017601 0.224774
vt 0.017600 0.258801
vt 0.017600 0.333829
vt 0.017599 0.367856
vt 0.017599 0.442884
vt 0.017598 0.476911
vt 0.017600 0.261126
vt 0.017600 0.295153
vt 0.017600 0.297477
vt 0.017600 0.331504
vt 0.017599 0.370181
vt 0.017599 0.404208
vt 0.017601 0.188422
vt 0.017601 0.222449
vt 0.118174 0.269761
vt 0.140143 0.280448
vt 0.120505 0.283650
vt 0.124855 0.210605
vt 0.141347 0.200744
vt 0.138438 0.209164
vt 0.120915 0.343248
vt 0.139865 0.352874
vt 0.120376 0.357792
vt 0.123822 0.238625
vt 0.139868 0.249258
vt 0.117392 0.250302
vt 0.128263 0.449269
vt 0.140356 0.459981
vt 0.121844 0.463521
vt 0.120591 0.396318
vt 0.140719 0.385130
vt 0.140564 0.392683
vt 0.140321 0.310803
vt 0.154958 0.313786
vt 0.155092 0.389202
vt 0.154714 0.455859
vt 0.137378 0.240298
vt 0.154624 0.246927
vt 0.140455 0.272900
vt 0.154739 0.277272
vt 0.156027 0.203511
vt 0.128057 0.430515
vt 0.140071 0.420519
vt 0.154563 0.424145
vt 0.142683 0.344867
vt 0.154714 0.351238
vt 0.021763 0.371905
vt 0.021762 0.402483
vt 0.065426 0.373136
vt 0.079048 0.400663
vt 0.065426 0.401253
vt 0.094704 0.376225
vt 0.105266 0.396722
vt 0.089207 0.398744
vt 0.021762 0.444609
vt 0.021761 0.475187
vt 0.066053 0.446512
vt 0.081230 0.473262
vt 0.065425 0.473956
vt 0.091749 0.449097
vt 0.105915 0.466657
vt 0.090516 0.469393
vt 0.021764 0.226499
vt 0.021764 0.257076
vt 0.065032 0.226837
vt 0.076854 0.254132
vt 0.065750 0.256491
vt 0.088494 0.252713
vt 0.106010 0.234379
vt 0.112446 0.255541
vt 0.021763 0.335554
vt 0.021763 0.366132
vt 0.065426 0.336784
vt 0.079346 0.366212
vt 0.065426 0.364901
vt 0.093712 0.360391
vt 0.104808 0.341220
vt 0.105048 0.358500
vt 0.021762 0.408257
vt 0.021762 0.438835
vt 0.065431 0.409440
vt 0.076142 0.436227
vt 0.066045 0.436884
vt 0.091684 0.433885
vt 0.104839 0.415424
vt 0.104802 0.433400
vt 0.021764 0.190147
vt 0.021764 0.220725
vt 0.065436 0.191302
vt 0.075297 0.219453
vt 0.065031 0.220378
vt 0.095552 0.218003
vt 0.106511 0.196602
vt 0.106839 0.213880
vt 0.021764 0.262850
vt 0.021763 0.293428
vt 0.065741 0.263581
vt 0.076514 0.291776
vt 0.064795 0.292959
vt 0.021763 0.299202
vt 0.021763 0.329780
vt 0.064804 0.299027
vt 0.075198 0.326985
vt 0.065426 0.328549
vt 0.101640 0.305196
vt 0.104846 0.322681
vt 0.092626 0.324620
vt 0.105736 0.379447
vt 0.104850 0.448277
vt 0.120103 0.416857
vt 0.122628 0.198547
vt 0.111781 0.273082
vt 0.101299 0.285413
vt 0.076501 0.300420
vt 0.076906 0.265636
vt 0.081245 0.191921
vt 0.088885 0.412697
vt 0.075205 0.338305
vt 0.075317 0.227510
vt 0.076149 0.447173
vt 0.079390 0.373825
vt 0.054967 0.299202
vt 0.054966 0.329780
vt 0.054967 0.262850
vt 0.054967 0.293428
vt 0.054967 0.190147
vt 0.054967 0.220725
vt 0.054965 0.408257
vt 0.054965 0.438835
vt 0.054966 0.335554
vt 0.054966 0.366132
vt 0.054967 0.226499
vt 0.054967 0.257076
vt 0.054965 0.444609
vt 0.054965 0.475187
vt 0.054966 0.371905
vt 0.054965 0.402483
vt 0.120917 0.381678
vt 0.095606 0.228368
vt 0.092792 0.338271
vt 0.079067 0.409457
vt 0.091171 0.193551
vt 0.088607 0.266396
vn 0.3827 0.0000 -0.9239
vn 0.9239 0.0000 -0.3827
vn 0.9239 0.0000 0.3827
vn 0.3827 0.0000 0.9239
vn -0.3827 0.0000 0.9239
vn -0.9239 -0.0000 0.3827
vn 0.3021 0.6139 0.7293
vn -0.9239 0.0000 -0.3827
vn -0.3827 0.0000 -0.9239
vn 0.5087 0.2491 -0.8241
vn -0.7293 0.6139 -0.3021
vn 0.7293 0.6139 -0.3021
vn -0.3021 0.6139 0.7293
vn -0.3021 0.6139 -0.7293
vn 0.3021 0.6139 -0.7293
vn 0.7293 0.6139 0.3021
vn -0.7293 0.6139 0.3021
vn -0.6192 0.3737 -0.6906
vn -0.8112 0.1587 0.5629
vn 0.7844 0.4033 -0.4713
vn -0.8774 0.2575 -0.4047
vn -0.5571 0.3589 0.7489
vn 0.8166 0.4676 0.3383
vn -0.0734 0.6589 -0.7486
vn 0.7168 0.6309 0.2969
vn -0.2330 0.6142 0.7539
vn -0.7235 0.6283 -0.2860
vn -0.2969 0.6309 -0.7168
vn -0.7150 0.6316 0.2998
vn 0.2518 0.6195 0.7435
vn 0.7412 0.6524 0.1584
vn -0.0000 1.0000 0.0000
vn 0.9216 0.0702 0.3817
vn 0.8301 0.3679 0.4190
vn -0.3216 0.1063 0.9409
vn -0.3965 0.2182 0.8917
vn -0.7778 0.5318 -0.3351
vn -0.8381 0.3925 -0.3790
vn 0.9238 -0.0163 -0.3826
vn 0.7913 0.5161 -0.3278
vn 0.3209 0.1249 0.9388
vn 0.4851 0.0819 0.8706
vn -0.8740 0.2071 0.4397
vn -0.5148 0.8303 0.2133
vn -0.3981 0.2722 -0.8760
vn 0.3859 0.5219 -0.7607
vn 0.1879 0.4813 -0.8562
vn 0.9121 0.1593 0.3778
vn -0.4533 0.3499 0.8198
vn -0.8072 0.4991 -0.3153
vn 0.8384 0.2018 -0.5063
vn 0.3666 0.2862 0.8853
vn -0.8718 0.3999 0.2829
vn -0.2364 0.1317 -0.9627
vn 0.2481 0.3195 -0.9145
vn 0.5348 0.1238 -0.8359
vn -0.4665 0.4888 -0.7371
vn -0.8979 0.1747 0.4042
vn 0.2910 0.4545 0.8419
vn 0.7133 0.4169 -0.5634
vn -0.8190 0.2519 -0.5155
vn -0.0457 0.7769 0.6280
vn 0.6778 0.6454 0.3523
vn 0.3669 0.2840 -0.8858
vn -0.3824 0.0357 -0.9233
vn -0.9207 0.0832 0.3814
vn 0.3464 0.4250 0.8363
vn 0.8858 0.2840 -0.3669
vn -0.9130 0.1530 -0.3782
vn -0.3669 0.2840 0.8858
vn 0.8858 0.2840 0.3669
vn 0.0449 0.4686 -0.8823
vn -0.3696 0.2591 -0.8923
vn -0.9027 0.3255 0.2816
vn 0.4526 0.4904 0.7447
vn 0.9770 0.1822 -0.1107
vn -0.8296 0.1796 -0.5287
vn 0.8302 0.4562 0.3203
vn 0.8895 -0.0818 0.4495
vn 0.8088 0.4834 0.3350
vn -0.3100 0.1254 0.9424
vn -0.4733 0.1061 0.8745
vn -0.8298 0.1966 -0.5223
vn -0.4356 0.7026 -0.5627
vn 0.6450 0.5335 -0.5470
vn 0.8009 0.4791 -0.3592
vn 0.3058 0.0784 0.9488
vn 0.2916 0.3483 0.8909
vn -0.9004 0.1216 0.4176
vn -0.7142 0.2376 0.6584
vn -0.4489 0.5515 -0.7031
vn -0.1743 0.1933 -0.9655
vn 0.5336 0.2353 -0.8123
vn 0.9164 0.1819 0.3564
vn -0.5282 0.2735 0.8038
vn -0.8147 0.3757 -0.4417
vn 0.8695 0.3380 -0.3602
vn 0.4829 0.1583 0.8612
vn -0.8695 0.3380 0.3602
vn -0.5643 0.6977 -0.4414
vn 0.5221 0.1094 -0.8459
vn 0.2073 0.5469 -0.8111
vn -0.1888 0.2209 -0.9569
vn -0.1877 0.8220 0.5376
vn 0.1797 0.5906 0.7867
vn 0.9083 0.1474 -0.3915
vn -0.8119 0.1579 -0.5620
vn -0.3951 0.4336 0.8099
vn 0.7164 0.5565 0.4208
vn 0.4551 0.0594 -0.8885
vn -0.4125 0.1492 -0.8987
vn -0.8546 0.2912 0.4300
vn 0.3108 0.2766 0.9093
vn -0.9107 0.0823 -0.4049
vn -0.2915 0.4334 0.8528
usemtl Mtn.1
s off
f 1/1/1 2/2/1 4/3/1 3/4/1
f 3/4/2 4/3/2 6/5/2 5/6/2
f 5/6/3 6/5/3 8/7/3 7/8/3
f 7/8/4 8/7/4 10/9/4 9/10/4
f 9/10/5 10/9/5 12/11/5 11/12/5
f 11/13/6 12/14/6 14/15/6 13/16/6
f 10/9/7 8/7/7 20/17/7 21/18/7
f 13/16/8 14/15/8 16/19/8 15/20/8
f 15/20/9 16/19/9 2/2/9 1/1/9
f 57/21/10 25/22/10 62/23/10
f 16/19/11 14/15/11 23/24/11 24/25/11
f 6/5/12 4/3/12 17/26/12 19/27/12
f 12/11/13 10/9/13 21/28/13 22/29/13
f 2/2/14 16/19/14 24/30/14 18/31/14
f 4/3/15 2/2/15 18/32/15 17/33/15
f 8/7/16 6/5/16 19/34/16 20/35/16
f 14/15/17 12/14/17 22/36/17 23/37/17
f 58/38/18 26/39/18 57/40/18
f 61/41/19 29/42/19 30/43/19
f 62/44/20 27/45/20 64/46/20
f 61/47/21 31/48/21 58/49/21
f 63/50/22 29/51/22 59/52/22
f 60/53/23 27/54/23 28/55/23
f 25/22/24 26/56/24 32/57/24
f 28/55/25 27/54/25 32/58/25
f 29/51/26 63/50/26 32/59/26
f 31/48/27 30/60/27 32/61/27
f 26/39/28 31/62/28 32/63/28
f 30/43/29 29/42/29 32/64/29
f 63/65/30 28/66/30 32/67/30
f 27/45/31 25/68/31 32/69/31
f 20/35/32 19/34/32 56/70/32 48/71/32
f 79/72/33 49/73/33 77/74/33
f 71/75/34 50/76/34 69/77/34
f 22/29/32 21/28/32 53/78/32 42/79/32
f 78/80/35 43/81/35 73/82/35
f 70/83/36 44/84/36 66/85/36
f 24/25/32 23/24/32 47/86/32 33/87/32
f 72/88/37 40/89/37 74/90/37
f 67/91/38 45/92/38 41/93/38
f 19/27/32 17/26/32 34/94/32 56/95/32
f 75/96/39 55/97/39 79/98/39
f 71/99/40 36/100/40 54/101/40
f 21/18/32 20/17/32 48/102/32 53/103/32
f 77/104/41 52/105/41 78/106/41
f 70/107/42 50/108/42 51/109/42
f 23/37/32 22/36/32 42/110/32 47/111/32
f 73/112/43 46/113/43 72/114/43
f 65/115/44 44/116/44 45/117/44
f 18/31/32 24/30/32 33/118/32 39/119/32
f 74/120/45 38/121/45 76/122/45
f 17/33/32 18/32/32 39/123/32 34/124/32
f 76/125/46 35/126/46 75/127/46
f 37/128/47 36/129/47 68/130/47
f 54/131/48 60/53/48 50/76/48
f 51/132/49 59/52/49 44/84/49
f 45/92/50 58/49/50 41/93/50
f 54/101/51 62/44/51 64/46/51
f 51/109/52 60/133/52 63/65/52
f 45/117/53 59/134/53 61/41/53
f 41/135/54 57/40/54 37/136/54
f 37/128/55 62/23/55 36/129/55
f 38/137/56 68/130/56 35/126/56
f 40/138/57 37/136/57 38/121/57
f 43/139/58 65/115/58 46/113/58
f 52/105/59 69/140/59 70/107/59
f 35/141/60 71/99/60 55/97/60
f 46/142/61 67/91/61 40/89/61
f 52/143/62 66/85/62 43/81/62
f 55/144/63 69/77/63 49/73/63
f 39/145/64 75/127/64 34/146/64
f 33/147/65 76/122/65 39/148/65
f 42/149/66 72/114/66 47/150/66
f 48/151/67 78/106/67 53/152/67
f 34/153/68 79/98/68 56/154/68
f 47/155/69 74/90/69 33/156/69
f 53/157/70 73/82/70 42/158/70
f 56/159/71 77/74/71 48/160/71
f 57/21/72 26/56/72 25/22/72
f 58/38/73 31/62/73 26/39/73
f 61/41/74 59/134/74 29/42/74
f 60/133/75 28/66/75 63/65/75
f 62/44/76 25/68/76 27/45/76
f 61/47/77 30/60/77 31/48/77
f 60/53/78 64/161/78 27/54/78
f 79/72/79 55/144/79 49/73/79
f 71/75/80 54/131/80 50/76/80
f 78/80/81 52/143/81 43/81/81
f 70/83/82 51/132/82 44/84/82
f 72/88/83 46/142/83 40/89/83
f 67/91/84 65/162/84 45/92/84
f 75/96/85 35/141/85 55/97/85
f 71/99/86 68/163/86 36/100/86
f 77/104/87 49/164/87 52/105/87
f 70/107/88 69/140/88 50/108/88
f 73/112/89 43/139/89 46/113/89
f 65/115/90 66/165/90 44/116/90
f 74/120/91 40/138/91 38/121/91
f 67/166/92 41/135/92 37/136/92
f 76/125/93 38/137/93 35/126/93
f 54/131/94 64/161/94 60/53/94
f 51/132/95 63/50/95 59/52/95
f 45/92/96 61/47/96 58/49/96
f 54/101/97 36/100/97 62/44/97
f 51/109/98 50/108/98 60/133/98
f 45/117/99 44/116/99 59/134/99
f 41/135/100 58/38/100 57/40/100
f 37/128/101 57/21/101 62/23/101
f 38/137/102 37/128/102 68/130/102
f 40/138/103 67/166/103 37/136/103
f 43/139/104 66/165/104 65/115/104
f 52/105/105 49/164/105 69/140/105
f 35/141/106 68/163/106 71/99/106
f 46/142/107 65/162/107 67/91/107
f 52/143/108 70/83/108 66/85/108
f 55/144/109 71/75/109 69/77/109
f 39/145/110 76/125/110 75/127/110
f 33/147/111 74/120/111 76/122/111
f 42/149/112 73/112/112 72/114/112
f 48/151/113 77/104/113 78/106/113
f 34/153/68 75/96/68 79/98/68
f 47/155/114 72/88/114 74/90/114
f 53/157/115 78/80/115 73/82/115
f 56/159/71 79/72/71 77/74/71
